<svg xmlns="http://www.w3.org/2000/svg" viewBox="0 0 483.7 483.7">
  <path d="M474 92c-9-10-22-16-36-16H141c-9 0-17 2-24 7l-15-53c-3-9-11-15-20-15H16C7 15 0 22 0 30v2c0 8 7 15 15 15h58l30 104 40 144a53 53 0 0010 105c-3 6-4 14-3 21a52 52 0 10101-21h60c-2 7-3 15-2 23a52 52 0 00104-6c-1-29-25-52-53-52H157c-10 0-19-8-19-18-1-10 8-18 18-18h242c21 0 39-15 44-35l40-162c4-14 1-28-8-40zM361 400c9 0 17 7 17 17s-8 17-17 17-18-8-18-17 8-17 18-17zm-159 0c9 0 17 7 17 17s-8 17-17 17c-10 0-18-8-18-17 1-10 8-17 18-17zm-63-249l-8-27c-1-5 1-8 2-9 1-2 3-4 8-4h32l9 40h-43zm10 35h41l8 37h-39l-10-37zm38 108c-5 0-9-3-10-8l-8-28h37l7 35h-26v1zm87 0h-25l-8-36h32v36h1zm0-71h-40l-9-37h49v37zm0-72h-56l-9-40h65v40zm62 143h-27v-36h34l-7 36zm15-71h-42v-37h50l-8 37zm-42-72v-40h66l-9 40h-57zm99 135c-1 4-5 8-10 8h-26l7-36h36l-7 28zm16-63h-38l8-37h39l-9 37zm25-100l-7 28h-40l8-40h29c4 0 7 2 8 4 1 1 3 4 2 8z"/>
</svg>
