<svg xmlns="http://www.w3.org/2000/svg" viewBox="0 0 512 512">
  <path d="M75 512h167V330h-60v-60h60v-75c0-41 34-75 75-75h75v60h-60c-17 0-30 13-30 30v60h87l-10 60h-77v182h135c41 0 75-34 75-75V75c0-41-34-75-75-75H75C34 0 0 34 0 75v362c0 41 34 75 75 75zM30 75c0-25 20-45 45-45h362c25 0 45 20 45 45v362c0 25-20 45-45 45H332V360h73l20-120h-93v-30h90V90H317c-58 0-105 47-105 105v45h-60v120h60v122H75c-25 0-45-20-45-45zm0 0" data-original="#000000" class="active-path" data-old_color="#000000" fill="#FFF"/>
</svg>
