<svg viewBox="0 0 512 512" xmlns="http://www.w3.org/2000/svg">
  <path d="M242 161c8 0 15-3 21-9s9-14 9-22c0-10-6-21-10-26-5-6-12-14-20-14s-15 8-20 14c-4 5-10 16-10 26 0 8 3 16 9 22s13 9 21 9zm0-49c4 4 10 13 10 18 0 3-1 6-3 8s-4 3-7 3-5-1-7-3-3-5-3-8c0-5 6-14 10-18z"/>
  <path d="M505 148c-2-3-5-5-8-5-1 0-15-1-15-10 0-5-4-10-10-10v-10c0-16-13-30-30-30V60h10c6 0 10-4 10-10V10c0-6-4-10-10-10H262a50 50 0 00-50 50v20c0 6 4 10 10 10h40c6 0 10-4 10-10V60h110v23c-17 0-30 14-30 30v10c-6 0-10 5-10 10 0 9-14 10-15 10-3 0-6 2-8 5-5 8-7 17-7 25v18l-30 10c-2-14-14-27-34-28l-23-1a10 10 0 100 20l22 1c11 1 15 7 16 13 0 7-6 11-15 12l-74 4a10 10 0 101 20l74-4c14-1 23-7 28-14l108-35c11-3 30-6 35 7 0 2-1 3-3 4l-133 64c-23 8-73 12-114 14a1221 1221 0 00-50 5L20 324v-84h41c5 0 10-4 10-10 0-12 4-23 13-31 8-8 18-11 28-11l23 1a10 10 0 101-20l-23-1c-16-1-31 5-43 17a63 63 0 00-19 35H10c-6 0-10 4-10 10v109a10 10 0 0014 9l113-46 45-4a545 545 0 00120-16l20-9v209c0 17 13 30 30 30h140c17 0 30-13 30-30V173c0-8-2-17-7-25zM262 40c-6 0-10 4-10 10v10h-20V50c0-8 3-16 9-21 5-6 13-9 21-9h180v20zm160 20v23h-20V60zm-50 63v-10c0-5 4-10 10-10h60c6 0 10 5 10 10v10zm7 47l-47 15v-12l2-10c10-2 22-8 26-20h104c4 12 16 18 26 20l2 10v45h-66c14-7 16-20 13-29-8-20-30-27-60-19zm6 68h107v160H332V263zm97 254H342c-6 0-10-4-10-10v-64h160v64c0 6-4 10-10 10z"/>
  <path d="M362 348h20v20c0 5 4 10 10 10h40c6 0 10-5 10-10v-20h20c6 0 10-5 10-10v-40c0-6-4-10-10-10h-20v-20c0-6-4-10-10-10h-40c-6 0-10 4-10 10v20h-20c-6 0-10 4-10 10v40c0 5 4 10 10 10zm10-40h20c6 0 10-5 10-10v-20h20v20c0 5 4 10 10 10h20v20h-20c-6 0-10 4-10 10v20h-20v-20c0-6-4-10-10-10h-20zM180 191a10 10 0 100-20 10 10 0 100 20z"/>
</svg>
