<svg xmlns="http://www.w3.org/2000/svg" viewBox="-46 0 512 512">
  <path d="M54 298l17 12 7-25 12-46c-1-3-13-35-5-75v-1c12-77 141-98 201-48 25 22 35 54 28 94-6 29-15 50-30 67-20 24-45 25-61 17-5-3-18-12-12-31 8-28 23-70 25-100 2-27-15-48-40-54-29-6-62 9-76 45-10 26-10 53 0 82 0 8-7 35-13 57-18 67-43 159-19 205l8 15 14-9c39-26 63-101 75-148 34 25 81 27 128 4 75-36 126-124 100-222C385 28 277-14 167 4 77 19 19 77 4 150c-13 60 7 120 50 148zM33 156C47 91 99 46 172 34c88-15 188 14 212 111 23 89-27 160-84 187-35 17-82 22-111-14l-18-25-8 30c-10 39-27 104-54 139-5-43 14-116 27-162 12-44 17-63 13-74-9-22-9-43-1-62 8-21 26-30 41-27 6 1 18 6 17 24-1 25-16 66-24 92-8 27 3 53 27 67 27 14 68 10 98-25 18-21 30-47 36-80 5-27 4-51-3-72-7-20-19-37-35-51-78-64-233-35-249 66-6 27-5 54 3 82l-5 19c-21-25-29-64-21-103zm0 0" data-original="#000000" class="active-path" data-old_color="#000000" fill="#FFF"/>
</svg>
