<svg xmlns="http://www.w3.org/2000/svg" viewBox="0 -47 512 512">
  <path d="M512 56l-35 2 19-55s-60 22-75 26C382-7 323-8 281 18a97 97 0 00-47 100c-67-9-124-41-169-95L51 6 41 25a117 117 0 00-2 110l-12-5-1 21a108 108 0 0032 81h-6l8 23c10 30 31 54 58 67-27 11-49 19-85 30L0 363l30 17c12 6 53 27 93 34 90 14 191 2 259-59 57-52 76-125 72-201 0-12 3-23 9-32l49-66zm-73 49a78 78 0 00-15 50c4 77-17 137-62 178-53 47-138 66-234 51-18-3-36-9-50-15 30-10 53-19 91-37l52-25-58-4c-28-1-51-15-65-37 8 0 15-1 22-3l55-16-55-13a83 83 0 01-62-60l23 4 51 5-41-32a86 86 0 01-32-90c92 95 199 88 210 90l-3-25a69 69 0 0130-83c29-17 74-20 106 9 7 6 16 9 25 7l20-7-13 37h17l-12 16zm0 0" data-original="#000000" class="active-path" data-old_color="#000000" fill="#FFF"/>
</svg>
