<svg xmlns="http://www.w3.org/2000/svg" viewBox="0 0 512 512">
  <path d="M124 475a257 257 0 00388-220A256 256 0 1037 388L0 513zM30 256a226 226 0 11104 191l-6-4-84 25 25-84-4-6c-23-36-35-78-35-122zm0 0" data-original="#000000" class="active-path" data-old_color="#000000" fill="#FFF"/>
  <path d="M125 209c5 26 19 76 62 119 43 42 93 57 119 62 30 6 73 7 95-15l12-12a32 32 0 000-45l-48-47a32 32 0 00-45 0l-12 12c-7 7-21 7-28 0l-48-50c-7-7-7-19 0-26l12-12c12-13 12-33 0-45l-48-48a32 32 0 00-45 0l-12 12c-17 17-22 53-14 95zm36-74l13-12h1l48 49v1l-12 12a49 49 0 000 69l47 50h1c19 19 51 19 70 0l12-12h3c50 50 48 47 48 49v1l-12 12c-9 8-35 13-68 7-23-5-67-17-104-55-37-37-50-80-54-103-6-34-1-60 7-68zm0 0" data-original="#000000" class="active-path" data-old_color="#000000" fill="#FFF"/>
</svg>
